HIERARCHY
ROOT Pelvis
{
	OFFSET 0.000000 0.000000 0.000000
	CHANNELS 6 Xposition Yposition Zposition Xrotation Yrotation Zrotation
	JOINT LeftUpLeg_virtual
	{
		OFFSET 0.000000 0.000000 0.000000
		CHANNELS 3 Xrotation Yrotation Zrotation
		JOINT LeftUpLeg
		{
			OFFSET 18.735201 -5.666702 -4.541200
			CHANNELS 3 Xrotation Yrotation Zrotation
			JOINT LeftLeg
			{
				OFFSET -0.021200 -31.938179 0.493100
				CHANNELS 3 Xrotation Yrotation Zrotation
				JOINT LeftFoot
				{
					OFFSET 0.021200 -31.938179 -4.336299
					CHANNELS 3 Xrotation Yrotation Zrotation
					JOINT LeftToeBase
					{
						OFFSET 0.943001 -26.722000 15.023500
						CHANNELS 3 Xrotation Yrotation Zrotation
						End Site
						{
							OFFSET 0 0 0
						}
					}
				}
			}
		}
	}
	JOINT RightUpLeg_virtual
	{
		OFFSET 0.000000 0.000000 0.000000
		CHANNELS 3 Xrotation Yrotation Zrotation
		JOINT RightUpLeg
		{
			OFFSET -18.735201 -5.666702 -4.541200
			CHANNELS 3 Xrotation Yrotation Zrotation
			JOINT RightLeg
			{
				OFFSET 0.018946 -31.938133 0.493100
				CHANNELS 3 Xrotation Yrotation Zrotation
				JOINT RightFoot
				{
					OFFSET -0.018946 -31.938126 -4.336299
					CHANNELS 3 Xrotation Yrotation Zrotation
					JOINT RightToeBase
					{
						OFFSET -0.943001 -26.722004 15.023500
						CHANNELS 3 Xrotation Yrotation Zrotation
						End Site
						{
							OFFSET 0 0 0
						}
					}
				}
			}
		}
	}
	JOINT Hips_virtual
	{
		OFFSET 0.000000 0.000000 0.000000
		CHANNELS 3 Xrotation Yrotation Zrotation
		JOINT Hips
		{
			OFFSET -0.000000 -0.000000 -0.000000
			CHANNELS 3 Xrotation Yrotation Zrotation
			JOINT Spine
			{
				OFFSET 0.000000 10.199997 -0.299500
				CHANNELS 3 Xrotation Yrotation Zrotation
				JOINT Spine1
				{
					OFFSET 0.000000 11.900002 -1.516600
					CHANNELS 3 Xrotation Yrotation Zrotation
					JOINT Spine2
					{
						OFFSET 0.000000 13.600006 -2.842500
						CHANNELS 3 Xrotation Yrotation Zrotation
						JOINT Neck_virtual
						{
							OFFSET 0.000000 0.000000 0.000000
							CHANNELS 3 Xrotation Yrotation Zrotation
							JOINT Neck
							{
								OFFSET 0.000000 9.624100 -2.890100
								CHANNELS 3 Xrotation Yrotation Zrotation
								JOINT Head
								{
									OFFSET 0.000000 14.068802 -1.351900
									CHANNELS 3 Xrotation Yrotation Zrotation
									End Site
									{
										OFFSET 0 0 0
									}
								}
							}
						}
						JOINT LeftShoulder_virtual
						{
							OFFSET 0.000000 0.000000 0.000000
							CHANNELS 3 Xrotation Yrotation Zrotation
							JOINT LeftShoulder
							{
								OFFSET 15.263000 10.923401 -0.547700
								CHANNELS 3 Xrotation Yrotation Zrotation
								JOINT LeftArm
								{
									OFFSET 25.438599 -2.830597 -13.032500
									CHANNELS 3 Xrotation Yrotation Zrotation
									JOINT LeftForeArm
									{
										OFFSET 29.960503 0.000000 0.000000
										CHANNELS 3 Xrotation Yrotation Zrotation
										JOINT LeftHand
										{
											OFFSET 27.849251 0.000000 0.000000
											CHANNELS 3 Xrotation Yrotation Zrotation
											End Site
											{
												OFFSET 0 0 0
											}
										}
									}
								}
							}
						}
						JOINT RightShoulder_virtual
						{
							OFFSET 0.000000 0.000000 0.000000
							CHANNELS 3 Xrotation Yrotation Zrotation
							JOINT RightShoulder
							{
								OFFSET -15.263000 10.923401 -0.547700
								CHANNELS 3 Xrotation Yrotation Zrotation
								JOINT RightArm
								{
									OFFSET -25.438599 -2.830597 -13.032500
									CHANNELS 3 Xrotation Yrotation Zrotation
									JOINT RightForeArm
									{
										OFFSET -29.960503 0.000000 0.000000
										CHANNELS 3 Xrotation Yrotation Zrotation
										JOINT RightHand
										{
											OFFSET -27.849251 0.000000 0.000000
											CHANNELS 3 Xrotation Yrotation Zrotation
											End Site
											{
												OFFSET 0 0 0
											}
										}
									}
								}
							}
						}
					}
				}
			}
		}
	}
}
MOTION
Frames: 11
Frame Time: 0.03333333
-6.831176 88.859451 4.933340 0.000000 0.000000 0.000000 15.019144 -19.941914 6.257246 -21.551489 5.914195 19.437994 43.523191 -6.603772 -1.993669 -8.347898 -5.246130 -13.520251 0.000000 0.000000 0.000000 1.228990 -10.707709 2.535232 -30.305536 -7.537888 -13.407021 32.172592 1.235483 1.326681 -21.838017 -4.023431 12.920702 0.000000 0.000000 0.000000 7.933612 15.319266 1.744121 -16.683108 8.880156 4.626596 11.595048 2.438483 -0.645281 8.716754 1.433200 -1.190272 0.000000 0.000000 0.000000 1.279164 -1.218855 -3.550073 -1.134322 -1.790941 0.311111 0.000000 0.000000 0.000000 8.179502 0.513041 -4.978381 -1.791993 -14.664391 -4.652006 25.774217 -26.101549 -37.949651 23.700461 -44.063702 1.437767 0.000000 0.000000 0.000000 6.132223 -1.163415 -2.512301 0.066462 -2.411365 -17.913281 -65.449297 1.914495 51.935184 -79.963757 54.642391 81.507530 0.000000 0.000000 0.000000 
-7.055970 88.995560 5.095217 0.000000 0.000000 0.000000 15.171628 -20.658739 6.173002 -21.310033 5.796030 19.147937 43.566286 -6.877712 -2.024473 -8.394255 -5.477031 -13.778200 0.000000 0.000000 0.000000 1.346135 -11.591330 2.469525 -30.223539 -7.768817 -13.573015 31.358631 0.878889 1.615955 -22.492467 -4.519112 13.036052 0.000000 0.000000 0.000000 7.322519 14.380675 2.029403 -16.473931 10.572206 5.318912 11.166663 1.719647 -0.702278 8.497044 1.065622 -1.266831 0.000000 0.000000 0.000000 1.318810 -1.651857 -4.525548 -1.185294 -1.737030 -0.173087 0.000000 0.000000 0.000000 8.286850 0.099729 -5.154035 -1.622934 -14.293550 -4.952581 26.745433 -25.109439 -37.420267 23.806534 -42.834623 1.547508 0.000000 0.000000 0.000000 5.995291 -2.054356 -1.894562 -0.324688 -5.831514 -15.327942 -61.785358 -6.916957 53.516766 -76.427979 49.808154 80.323127 0.000000 0.000000 0.000000 
-7.097917 89.050110 5.220329 0.000000 0.000000 0.000000 15.384564 -21.326176 6.052266 -20.992764 5.720319 18.816393 43.668722 -7.070111 -2.112789 -8.374135 -5.606265 -14.067815 0.000000 0.000000 0.000000 1.594563 -12.151469 2.435975 -29.960720 -7.943751 -13.694920 30.721805 0.528530 1.771367 -23.039078 -4.925126 12.983536 0.000000 0.000000 0.000000 6.644932 13.362763 2.246225 -16.482341 11.909386 5.802253 10.736659 0.884420 -0.833968 8.289809 0.634582 -1.385698 0.000000 0.000000 0.000000 1.219620 -2.060846 -4.606234 -1.277810 -1.707333 -0.167389 0.000000 0.000000 0.000000 8.199333 -0.459732 -5.182944 -1.564799 -14.693707 -4.760915 26.329102 -24.426259 -36.812821 23.376640 -42.251639 1.705718 0.000000 0.000000 0.000000 5.966105 -2.882406 -1.416512 -0.468855 -8.966475 -13.420774 -58.584226 -14.710703 56.217829 -77.069983 44.885138 83.637306 0.000000 0.000000 0.000000 
-6.733256 89.000450 4.919651 0.000000 0.000000 0.000000 15.508366 -21.795697 5.867376 -20.748540 5.685856 18.464011 43.626481 -7.183530 -2.238257 -8.435784 -5.638056 -14.347466 0.000000 0.000000 0.000000 1.875681 -12.520697 2.390155 -29.613163 -8.072581 -13.801616 29.916724 0.156440 1.815011 -23.644406 -5.288265 12.769405 0.000000 0.000000 0.000000 6.104041 12.241994 2.399899 -15.870580 12.894106 5.956538 10.399726 0.054922 -1.013445 8.140852 0.208350 -1.523088 0.000000 0.000000 0.000000 1.052031 -2.524242 -4.663596 -1.378719 -1.735942 -0.157788 0.000000 0.000000 0.000000 7.993895 -1.035800 -5.171315 -1.586134 -15.365957 -4.491290 24.288214 -24.195339 -36.706017 22.346330 -42.497447 1.662765 0.000000 0.000000 0.000000 5.870121 -3.585859 -0.939432 -0.555850 -11.576883 -11.585766 -55.805043 -20.802502 59.234577 -78.731714 40.503343 87.925783 0.000000 0.000000 0.000000 
-6.395740 88.983833 4.143866 0.000000 0.000000 0.000000 15.474693 -22.003390 5.637600 -20.671617 5.684352 18.143706 43.538245 -7.163937 -2.383622 -8.488592 -5.537900 -14.560758 0.000000 0.000000 0.000000 2.108540 -12.550835 2.322296 -29.265721 -8.101945 -13.875888 29.274211 -0.127607 1.751655 -24.082926 -5.508604 12.479659 0.000000 0.000000 0.000000 5.480306 11.056774 2.388691 -15.646003 13.341338 5.403645 10.250552 -0.724571 -1.335193 8.110570 -0.195663 -1.722943 0.000000 0.000000 0.000000 0.668372 -2.851533 -4.247808 -1.550883 -1.722182 0.111635 0.000000 0.000000 0.000000 7.839817 -1.564851 -5.114140 -1.509437 -16.089721 -4.052423 23.107560 -24.553555 -36.556655 21.961191 -43.148545 1.823507 0.000000 0.000000 0.000000 5.872639 -4.182042 -0.272973 -0.310872 -13.887678 -8.929193 -52.250954 -26.021190 63.848602 -80.697053 35.834058 93.431619 0.000000 0.000000 0.000000 
-6.062070 88.830116 3.646908 0.000000 0.000000 0.000000 15.357358 -22.036388 5.452028 -20.773201 5.699150 17.949976 43.584810 -7.048627 -2.548225 -8.424864 -5.345356 -14.740779 0.000000 0.000000 0.000000 2.309188 -12.341111 2.244951 -28.951656 -8.060739 -13.938790 28.903960 -0.324359 1.592222 -24.300795 -5.591774 12.129105 0.000000 0.000000 0.000000 4.850534 9.958241 2.225425 -15.414958 13.695334 4.282529 10.194752 -1.312889 -1.752987 8.120849 -0.490744 -1.963779 0.000000 0.000000 0.000000 0.259761 -3.010265 -3.551969 -1.733793 -1.641411 0.529762 0.000000 0.000000 0.000000 7.728921 -2.005433 -5.037263 -1.381943 -16.651060 -3.561849 22.323198 -25.080349 -36.635072 21.770026 -43.847342 1.898398 0.000000 0.000000 0.000000 6.163990 -4.577195 0.291035 0.326662 -15.404833 -6.659270 -48.928180 -29.032139 67.638257 -82.507422 32.833460 98.194863 0.000000 0.000000 0.000000 
-5.795873 88.647339 3.432930 0.000000 0.000000 0.000000 15.231359 -21.873056 5.229146 -20.909391 5.778744 17.769728 43.656004 -6.896308 -2.704979 -8.329621 -5.125988 -14.881695 0.000000 0.000000 0.000000 2.575382 -11.795049 2.155970 -28.498739 -7.941437 -13.971172 28.883572 -0.457481 1.396313 -24.232995 -5.584134 11.785279 0.000000 0.000000 0.000000 4.547156 9.026282 2.166718 -14.332267 13.991517 3.924400 10.161686 -1.778270 -2.122580 8.132732 -0.709033 -2.172238 0.000000 0.000000 0.000000 0.201888 -3.007094 -2.926778 -1.732188 -1.484383 0.896815 0.000000 0.000000 0.000000 7.666423 -2.296389 -4.967568 -1.202529 -16.829279 -3.158313 22.540282 -25.499646 -37.154453 21.949986 -44.078066 1.736120 0.000000 0.000000 0.000000 6.291338 -4.712486 0.665989 0.797738 -15.865285 -5.166213 -47.557091 -30.604732 69.176859 -83.969697 31.655202 100.803333 0.000000 0.000000 0.000000 
-5.645679 88.518257 3.450241 0.000000 0.000000 0.000000 15.108867 -21.470071 5.078804 -21.040960 5.896684 17.716269 43.694117 -6.664849 -2.824649 -8.229750 -4.854338 -14.909977 0.000000 0.000000 0.000000 2.870948 -10.910519 2.122216 -27.948297 -7.755240 -13.892096 29.143130 -0.486620 1.190232 -23.906553 -5.468559 11.500351 0.000000 0.000000 0.000000 4.444860 8.169238 2.052933 -12.539183 14.166414 3.472533 10.170251 -2.078950 -2.416294 8.171118 -0.841126 -2.326353 0.000000 0.000000 0.000000 0.262489 -2.944391 -2.558873 -1.662859 -1.329243 1.110641 0.000000 0.000000 0.000000 7.656589 -2.412675 -4.861835 -0.949673 -16.617652 -2.644463 23.503540 -25.589534 -37.339247 22.434289 -43.828521 1.689344 0.000000 0.000000 0.000000 6.372685 -4.654474 0.925800 1.214022 -15.629653 -4.093604 -47.095087 -31.432128 69.782185 -85.547245 31.242105 102.737144 0.000000 0.000000 0.000000 
-5.446349 88.666260 3.674179 0.000000 0.000000 0.000000 14.970439 -21.065548 5.015492 -21.218794 5.983883 17.765452 43.742280 -6.415288 -2.895976 -8.126344 -4.590170 -14.850247 0.000000 0.000000 0.000000 3.153700 -9.936694 2.146169 -27.407398 -7.558266 -13.737290 29.615888 -0.491320 0.973119 -23.402895 -5.314217 11.222915 0.000000 0.000000 0.000000 4.459356 7.386465 1.997108 -10.409353 14.213676 3.439430 10.315922 -2.209963 -2.571676 8.278695 -0.889894 -2.402977 0.000000 0.000000 0.000000 0.281659 -2.790231 -2.548113 -1.621215 -1.146127 1.112732 0.000000 0.000000 0.000000 7.738974 -2.394398 -4.744549 -0.639645 -16.062165 -2.167804 25.575128 -25.739404 -37.431131 23.359959 -43.287915 1.666856 0.000000 0.000000 0.000000 6.514075 -4.433519 0.982811 1.576344 -14.750664 -3.847390 -47.843942 -31.398462 68.904567 -86.861592 32.182663 103.177227 0.000000 0.000000 0.000000 
-5.323916 88.812126 3.860023 0.000000 0.000000 0.000000 14.832230 -20.785772 4.981808 -21.395388 6.028522 17.817815 43.716117 -6.149851 -2.925012 -8.085172 -4.327631 -14.707883 0.000000 0.000000 0.000000 3.356829 -9.100401 2.187593 -26.967603 -7.388304 -13.563117 30.122077 -0.472080 0.788910 -22.852264 -5.154591 11.006194 0.000000 0.000000 0.000000 4.460629 6.572695 1.989722 -8.462639 13.822092 3.683871 10.474311 -2.230334 -2.597868 8.383760 -0.877813 -2.409424 0.000000 0.000000 0.000000 0.179667 -2.576150 -2.475877 -1.640497 -0.957949 1.133366 0.000000 0.000000 0.000000 7.744156 -2.311448 -4.634200 -0.445227 -15.399901 -1.867019 27.409734 -25.959493 -37.814168 24.236103 -42.945774 1.557814 0.000000 0.000000 0.000000 6.518381 -4.170559 1.030179 1.774455 -13.707986 -3.597493 -48.992510 -31.453383 67.654554 -87.424318 33.101255 102.566984 0.000000 0.000000 0.000000 
-5.319920 89.005722 4.063145 0.000000 0.000000 0.000000 14.698086 -20.591026 4.955065 -21.569690 6.050310 17.858872 43.733571 -5.882721 -2.920787 -8.006208 -4.084911 -14.514055 0.000000 0.000000 0.000000 3.468820 -8.436884 2.217662 -26.653876 -7.244813 -13.409088 30.676418 -0.425034 0.650606 -22.252210 -4.993126 10.872737 0.000000 0.000000 0.000000 4.494395 5.783141 1.970495 -6.619220 13.124273 3.852744 10.636539 -2.167197 -2.513462 8.477779 -0.824888 -2.349353 0.000000 0.000000 0.000000 0.080168 -2.402081 -2.534472 -1.670077 -0.815291 1.064481 0.000000 0.000000 0.000000 7.624989 -2.186954 -4.508194 -0.404897 -14.695828 -1.641969 28.525631 -26.101431 -38.189107 24.865276 -42.884063 1.508064 0.000000 0.000000 0.000000 6.467554 -3.948763 1.229109 1.955232 -12.865246 -2.650765 -49.249653 -31.876821 67.600001 -87.877815 33.141526 102.626522 0.000000 0.000000 0.000000 
